<?xml version="1.0" encoding="UTF-8"?>
<svg width="57px" height="61px" viewBox="0 0 57 61" version="1.1" xmlns="http://www.w3.org/2000/svg" xmlns:xlink="http://www.w3.org/1999/xlink">
    <!-- Generator: Sketch 59.1 (86144) - https://sketch.com -->
    <title>Group 3</title>
    <desc>Created with Sketch.</desc>
    <defs>
        <rect id="path-1" x="0" y="0" width="49" height="53" rx="24.5"></rect>
        <filter x="-14.3%" y="-9.4%" width="128.6%" height="126.4%" filterUnits="objectBoundingBox" id="filter-2">
            <feOffset dx="0" dy="2" in="SourceAlpha" result="shadowOffsetOuter1"></feOffset>
            <feGaussianBlur stdDeviation="2" in="shadowOffsetOuter1" result="shadowBlurOuter1"></feGaussianBlur>
            <feColorMatrix values="0 0 0 0 0   0 0 0 0 0   0 0 0 0 0  0 0 0 0.5 0" type="matrix" in="shadowBlurOuter1"></feColorMatrix>
        </filter>
    </defs>
    <g id="Welcome" stroke="none" stroke-width="1" fill="none" fill-rule="evenodd">
        <g id="Desktop-HD" transform="translate(-319.000000, -924.000000)">
            <g id="Group-3" transform="translate(323.000000, 926.000000)">
                <g id="Rectangle-Copy-2">
                    <use fill="black" fill-opacity="1" filter="url(#filter-2)" xlink:href="#path-1"></use>
                    <use fill="#FFFFFF" fill-rule="evenodd" xlink:href="#path-1"></use>
                </g>
                <g id="symbol" transform="translate(11.000000, 11.000000)" fill="#000000" fill-rule="nonzero">
                    <path d="M28.1726777,8.12412161 C27.8790886,7.78536383 27.537641,7.47605454 27.1592802,7.2 C27.2098571,8.0759089 27.1229393,9.00911213 26.8968814,9.99687186 C26.2797291,12.6955153 24.8039862,14.9886911 22.6292522,16.6280571 C20.4563067,18.2662879 17.7428969,19.1323138 14.7826119,19.1323138 L10.465765,19.1323138 L9.0684269,25.2431757 C8.79400981,26.442417 7.64175851,27.3125831 6.32833367,27.3125831 L4.38237602,27.3125831 L4.03198632,28.8139886 C3.94199239,29.2006252 4.04414766,29.6045569 4.3100518,29.9126642 C4.57581288,30.2207716 4.9770656,30.4 5.40099564,30.4 L10.1580831,30.4 C10.8190877,30.4 11.3903131,29.9686898 11.5281654,29.3652963 L13.1620774,22.2195304 L18.6123613,22.2195304 C21.2487969,22.2195304 23.6576725,21.4540033 25.5789497,20.005752 C27.5010855,18.5568997 28.8073566,16.5209474 29.35662,14.1185918 C29.912894,11.6894588 29.5145028,9.6726046 28.1726777,8.12412161 Z" id="Path"></path>
                    <path d="M7.52822871,25.2934033 L9.16213747,17.6517735 L14.6124107,17.6517735 C17.2486982,17.6517735 19.6577121,16.8330377 21.5789141,15.284188 C23.500903,13.734767 24.8073146,11.5574938 25.35672,8.98845564 C25.9127784,6.39063857 25.5146025,4.23386054 24.1725654,2.57789319 C22.8843957,0.98776749 20.6823388,0 18.4262714,0 L6.55153185,0 C5.89274613,0 5.32295264,0.458249276 5.18266827,1.1007409 L0.032064204,24.7040421 C-0.058072619,25.1174448 0.0440824471,25.5494145 0.310129149,25.8789798 C0.575746629,26.2084022 0.976855491,26.4 1.40092778,26.4 L6.158149,26.4 C6.81915237,26.4 7.39001891,25.9388228 7.52822871,25.2934033 Z M11.8879179,5.37666296 L15.6242323,5.37666296 C16.5032094,5.37666296 17.2891882,5.74436212 17.78072,6.38563974 C18.3027267,7.06683654 18.455387,8.00875768 18.199427,8.96988858 C18.1960648,8.98209999 18.1931318,8.9943114 18.1900557,9.00673705 C17.7200565,10.9869852 15.7655182,12.598106 13.8335856,12.598106 L10.2531507,12.598106 L11.8879179,5.37666296 Z" id="Shape"></path>
                </g>
            </g>
        </g>
    </g>
</svg>